<?xml version="1.0" encoding="UTF-8"?>
<svg width="512" height="512" viewBox="0 0 512 512" fill="none" xmlns="http://www.w3.org/2000/svg">
    <!-- Drop Shadow -->
    <rect x="106" y="74" width="320" height="384" rx="32" fill="#00000040" stroke="#00000040" stroke-width="20"/>
    
    <!-- Notepad Background -->
    <rect x="96" y="64" width="320" height="384" rx="32" fill="#F5F5F5" stroke="#666666" stroke-width="8"/>
    
    <!-- Notepad Rings -->
    <rect x="136" y="64" width="16" height="24" rx="8" fill="#666666"/>
    <rect x="176" y="64" width="16" height="24" rx="8" fill="#666666"/>
    <rect x="216" y="64" width="16" height="24" rx="8" fill="#666666"/>
    <rect x="256" y="64" width="16" height="24" rx="8" fill="#666666"/>
    <rect x="296" y="64" width="16" height="24" rx="8" fill="#666666"/>
    <rect x="336" y="64" width="16" height="24" rx="8" fill="#666666"/>
    
    <!-- Camera Icon -->
    <g transform="translate(156, 184)">
        <!-- Camera Body -->
        <path d="M0 32H200V120C200 132 190 144 176 144H24C10 144 0 132 0 120V32Z" 
              fill="#FFFFFF" 
              stroke="#666666" 
              stroke-width="8"
              stroke-linejoin="round"/>
              
        <!-- Camera Top -->
        <path d="M0 32V24C0 10.7 10.7 0 24 0H176C189.3 0 200 10.7 200 24V32H160L152 16H48L40 32H0Z" 
              fill="#FFFFFF" 
              stroke="#666666" 
              stroke-width="8"
              stroke-linejoin="round"/>
              
        <!-- Flash -->
        <rect x="152" y="8" width="32" height="12" rx="2" 
              fill="#FFFFFF" 
              stroke="#666666" 
              stroke-width="4"/>
              
        <!-- Lens Mount -->
        <circle cx="100" 
                cy="88" 
                r="36" 
                fill="#FFFFFF" 
                stroke="#666666" 
                stroke-width="8"/>
                
        <!-- Lens -->
        <circle cx="100" 
                cy="88" 
                r="24" 
                fill="#FFFFFF" 
                stroke="#666666" 
                stroke-width="6"/>
    </g>
    
    <!-- Slanted Pencil -->
    <g transform="translate(100, 300) rotate(45)">
        <!-- Pencil Body -->
        <rect x="0" y="-18" width="210" height="36" rx="6" 
              fill="#FFFFFF" 
              stroke="#666666" 
              stroke-width="8"/>
        <!-- Pencil Tip -->
        <path d="M210 -18L240 0L210 18Z" 
              fill="#FFFFFF" 
              stroke="#666666" 
              stroke-width="8"
              stroke-linejoin="round"/>
        <!-- Eraser End -->
        <rect x="-36" y="-18" width="36" height="36" rx="6" 
              fill="#FFFFFF" 
              stroke="#666666" 
              stroke-width="8"/>
    </g>
    
    <!-- Folded Corner -->
    <path d="M416 384L336 448H416V384Z" fill="#666666" stroke="#666666" stroke-width="8" stroke-linejoin="round"/>
    <path d="M416 384L336 448" stroke="#666666" stroke-width="8"/>
</svg> 